<svg height="512" viewBox="0 0 512 512" width="512" xmlns="http://www.w3.org/2000/svg" xmlns:xlink="http://www.w3.org/1999/xlink"><clipPath id="a"><path d="m0 0h512v512h-512z"/></clipPath><linearGradient id="b"><stop offset="0" stop-color="#00b4d8"/><stop offset="1" stop-color="#0096c7"/></linearGradient><linearGradient id="c" gradientTransform="matrix(215.49 0 0 221.937 37.67 182.87)" gradientUnits="userSpaceOnUse" x2="1" xlink:href="#b"/><linearGradient id="d" gradientTransform="matrix(185.94 0 0 182.537 242.96 202.43)" gradientUnits="userSpaceOnUse" x2="1" xlink:href="#b"/><linearGradient id="e" gradientTransform="matrix(110.53 0 0 135.271 367.94 226.2)" gradientUnits="userSpaceOnUse" x2="1" xlink:href="#b"/><g clip-path="url(#a)"><path d="m252.4 157.7c.8 1.2 1 2.8.4 4.2-1.3 2.8-61.8 44.2-47 68 3.3 5.3 8 8.3 12.6 10.7 10.2 5.4 16.9 9 19.2 18.2 4 16.3-7.1 29.8-42.2 34.4q-.4.1-.8.1-3.7.3-7.5.5h-143.3c-4.9 0-7.9-5.5-5-9.6l72-103.6c24.6-35.4 49.2-70.7 73.7-106 2.5-3.6 7.7-3.6 10.1 0z" fill="url(#c)" fill-rule="evenodd"/><path d="m423.8 293.7h-139.1c-4.1 0-6.1-5-3.2-7.8q.3-.3.5-.5c17-15.3 12.6-37.1-11-48.1-5.6-2.6-40.8-11-23.1-39.6 4.3-6.9 9.2-14.9 14.4-23.2 13.5-21.7 28.6-45.8 38.2-61.2 1.6-2.6 5.5-2.9 7.3-.4q.1 0 .1.1l60.7 87.3q29.7 42.8 59.4 85.5c2.3 3.3-.1 7.9-4.2 7.9z" fill="url(#d)" fill-rule="evenodd"/><path d="m474.7 293.8h-36.8c1.9-4.5 1.3-9.7-1.5-13.8l-68.5-98.4q7.5-10.7 14.9-21.4c1.5-2.2 4.7-2.2 6.2 0l44.9 64.6q21.9 31.6 43.9 63.2c1.7 2.4 0 5.8-3.1 5.8z" fill="url(#e)" fill-rule="evenodd"/><g fill="#31323f"><path d="m24.2 424.4h-6.1v-2.6h15v2.6h-6v19.7h-2.9z"/><path d="m39.9 421.8h13.2v2.6h-10.4v7.3h10.2v2.5h-10.2v7.3h10.4v2.6h-13.2z"/><path d="m72.1 441.7q2 0 3.6-.6 1.5-.6 2.2-1.1l1.2 2.5q-.7.6-2.6 1.3-1.9.7-4.5.7-2.5 0-4.6-.8-2.1-.9-3.7-2.5-1.6-1.6-2.5-3.7-.9-2.1-.9-4.5 0-2.5.9-4.6.9-2.1 2.5-3.7 1.5-1.6 3.7-2.5 2.1-.8 4.6-.9 2.6 0 4.5.7 1.9.7 2.6 1.4l-1.2 2.5q-.7-.6-2.2-1.1-1.5-.6-3.6-.6-1.9 0-3.5.6-1.6.7-2.7 1.9-1.2 1.1-1.8 2.7-.7 1.6-.7 3.5 0 1.9.7 3.5.6 1.6 1.8 2.8 1.1 1.2 2.7 1.8 1.6.6 3.5.6z"/><path d="m99.8 434.2h-10.8v9.9h-2.8v-22.3h2.8v9.8h10.8v-9.8h2.8v22.3h-2.8z"/><path d="m122.6 421.8h6.2q1.8 0 3.4.5 1.6.5 2.6 1.6 1 1.2 1 3.3 0 1.4-.5 2.5-.6 1.2-1.4 1.9-.8.7-1.6.8.7.1 1.4.4.8.4 1.6 1.1.7.6 1.1 1.6.5 1 .5 2.4 0 1.8-.7 3.2-.8 1.4-2.3 2.2-1.5.8-3.8.8h-7.5zm2.8 9.8h3.8q1.3 0 2.1-.6.8-.5 1.3-1.4.4-.9.4-1.9 0-1.9-1.2-2.7-1.1-.8-3-.7h-3.3v7.3zm0 10.2h4.3q1.6 0 2.5-.6.9-.6 1.2-1.5.4-.9.4-1.9 0-1.7-1.1-2.8-1.1-1-3.3-1h-4z"/><path d="m158.1 421.8h2.9v13.9q0 2.7-1.1 4.7-1.1 2-3 3.1-1.9 1-4.4 1.1-2.4-.1-4.4-1.1-1.9-1.1-3-3.1-1.1-2-1.1-4.7v-13.9h2.9v13.7q0 2 .7 3.4.8 1.4 2 2.2 1.3.7 2.9.7 1.7 0 2.9-.7 1.3-.8 2-2.2.8-1.4.8-3.4v-13.7z"/><path d="m175.7 421.4q2 0 3.4.4 1.4.4 2.2.9.8.5.9.7l-1.5 2.4q-.2-.3-.9-.7-.6-.4-1.6-.7-.9-.3-2.2-.3-1.9 0-3 .7-1.1.8-1.1 2.2 0 1 .6 1.7.6.7 1.6 1.3 1.1.6 2.5 1.2 1.2.5 2.3 1.1 1.1.7 2 1.5 1 .8 1.5 2 .6 1.1.6 2.5 0 1.5-.6 2.6-.6 1.2-1.6 2-1.1.8-2.5 1.2-1.4.4-3 .4-2.1 0-3.7-.5-1.7-.5-2.7-1.1-1-.5-1.2-.6l1.6-2.5q.2.1.8.5.5.3 1.3.7.8.3 1.8.6 1 .2 2.1.2 2.3 0 3.5-1 1.1-1 1.1-2.6 0-1.2-.7-2.1-.8-.9-2-1.6-1.2-.7-2.7-1.3-1.5-.7-2.8-1.6-1.3-.8-2-1.9-.8-1.2-.8-2.9 0-1.6.9-2.8.9-1.2 2.5-1.9 1.6-.7 3.4-.7z"/><path d="m190.5 421.8h2.9v22.3h-2.9z"/><path d="m204.4 424.5.2.1v19.5h-2.9v-22.3h4.1l11.6 19.5-.2.1v-19.6h2.9v22.3h-4.1s-11.6-19.6-11.6-19.6z"/><path d="m228.2 421.8h13.2v2.6h-10.3v7.3h10.1v2.5h-10.1v7.3h10.3v2.6h-13.2z"/><path d="m256.5 421.4q2 0 3.3.4 1.4.4 2.3.9.8.5.9.7l-1.5 2.4q-.2-.3-.9-.7-.6-.4-1.6-.7-1-.3-2.2-.3-1.9 0-3 .7-1.1.8-1.1 2.2 0 1 .6 1.7.5.7 1.6 1.3 1.1.6 2.5 1.2 1.2.5 2.3 1.1 1.1.7 2 1.5 1 .8 1.5 2 .6 1.1.6 2.5 0 1.5-.6 2.6-.6 1.2-1.7 2-1 .8-2.4 1.2-1.4.4-3 .4-2.1 0-3.8-.5-1.6-.5-2.6-1.1-1-.5-1.2-.6l1.6-2.5q.2.1.8.5.5.3 1.3.7.8.3 1.8.6 1 .2 2.1.2 2.3 0 3.5-1 1.1-1 1.1-2.6 0-1.2-.7-2.1-.8-.9-2-1.6-1.2-.7-2.7-1.3-1.6-.7-2.8-1.6-1.3-.8-2.1-1.9-.7-1.2-.7-2.9 0-1.6.9-2.8.9-1.2 2.5-1.9 1.5-.7 3.4-.7z"/><path d="m278 421.4q1.9 0 3.3.4 1.4.4 2.2.9.8.5.9.7l-1.4 2.4q-.3-.3-.9-.7-.7-.4-1.7-.7-.9-.3-2.2-.3-1.9 0-3 .7-1.1.8-1.1 2.2 0 1 .6 1.7.6.7 1.6 1.3 1.1.6 2.5 1.2 1.2.5 2.3 1.1 1.2.7 2.1 1.5.9.8 1.5 2 .5 1.1.5 2.5 0 1.5-.6 2.6-.6 1.2-1.6 2-1.1.8-2.5 1.2-1.4.4-3 .4-2.1 0-3.7-.5-1.7-.5-2.7-1.1-1-.5-1.1-.6l1.6-2.5q.1.1.7.5.5.3 1.3.7.8.3 1.8.6 1 .2 2.2.2 2.2 0 3.4-1 1.2-1 1.2-2.6 0-1.2-.8-2.1-.7-.9-2-1.6-1.2-.7-2.7-1.3-1.5-.7-2.8-1.6-1.3-.8-2-1.9-.8-1.2-.8-2.9 0-1.6.9-2.8 1-1.2 2.5-1.9 1.6-.7 3.5-.7z"/><path d="m304.5 421.8h2.9v22.3h-2.9z"/><path d="m318.5 424.5.2.1v19.5h-2.9v-22.3h4l11.6 19.5-.1.1v-19.6h2.9v22.3h-4.2s-11.5-19.6-11.5-19.6z"/><path d="m353.1 441.7q2.1 0 3.6-.6 1.6-.6 2.2-1.1l1.3 2.5q-.8.6-2.7 1.3-1.8.7-4.5.7-2.5 0-4.6-.8-2.1-.9-3.7-2.5-1.6-1.6-2.5-3.7-.8-2.1-.8-4.5 0-2.5.8-4.6.9-2.1 2.5-3.7 1.6-1.6 3.7-2.5 2.1-.8 4.6-.9 2.7 0 4.5.7 1.9.7 2.7 1.4l-1.3 2.5q-.6-.6-2.2-1.1-1.5-.6-3.6-.6-1.9 0-3.4.6-1.6.7-2.8 1.9-1.1 1.1-1.8 2.7-.6 1.6-.6 3.5 0 1.9.6 3.5.7 1.6 1.8 2.8 1.2 1.2 2.8 1.8 1.5.6 3.4.6z"/><path d="m381.2 421.8h2.9v13.9q0 2.7-1.1 4.7-1.1 2-3 3.1-2 1-4.4 1.1-2.5-.1-4.4-1.1-2-1.1-3.1-3.1-1.1-2-1.1-4.7v-13.9h2.9v13.7q0 2 .8 3.4.7 1.4 2 2.2 1.3.7 2.9.7 1.6 0 2.9-.7 1.2-.8 2-2.2.7-1.4.7-3.4z"/><path d="m391.8 421.8h6.2q1.9 0 3.5.5 1.6.5 2.6 1.6 1 1.2 1 3.3 0 1.4-.6 2.5-.5 1.2-1.3 1.9-.8.7-1.6.8.6.1 1.4.4.8.4 1.5 1.1.7.6 1.2 1.6.5 1 .5 2.4 0 1.8-.8 3.2-.7 1.4-2.2 2.2-1.6.8-3.9.8h-7.5zm2.9 9.8h3.7q1.3 0 2.2-.6.8-.5 1.2-1.4.4-.9.4-1.9 0-1.9-1.1-2.7-1.2-.8-3.1-.7h-3.3zm0 10.2h4.3q1.6 0 2.5-.6.9-.6 1.3-1.5.3-.9.3-1.9 0-1.7-1.1-2.8-1.1-1-3.2-1h-4.1z"/><path d="m419.9 421.8h3l8.3 22.3h-3.1l-1.9-5.4h-9.5l-2 5.4h-3.1zm-2.3 14.4h7.7l-3.8-10.8h-.1s-3.8 10.8-3.8 10.8z"/><path d="m439.6 424.4h-6v-2.6h15v2.6h-6.1v19.7h-2.9z"/><path d="m453.3 432.9q0-2.4.9-4.5.8-2.1 2.3-3.7 1.5-1.6 3.6-2.4 2-.9 4.3-.9 2.4 0 4.5.9 2 .8 3.5 2.4 1.5 1.6 2.3 3.7.8 2.1.8 4.5 0 2.5-.8 4.6-.8 2.1-2.3 3.7-1.5 1.6-3.5 2.5-2 .8-4.5.8-2.4 0-4.4-.8-2.1-.9-3.5-2.5-1.5-1.6-2.3-3.7-.8-2.1-.9-4.6zm3 0q0 2.5 1.1 4.5 1 2 2.8 3.2 1.9 1.2 4.2 1.2 2.4 0 4.3-1.2 1.8-1.2 2.8-3.2 1-2 1-4.5 0-2.4-1-4.4-1-2-2.8-3.2-1.9-1.2-4.3-1.2-2.3 0-4.2 1.2-1.8 1.2-2.8 3.2-1.1 2-1.1 4.4z"/><path d="m482.5 421.8h7.8q1.8 0 3.3.7 1.5.8 2.3 2.2.9 1.5.9 3.6 0 2-.8 3.4-.8 1.3-2 2-1.1.7-2.1.8l5.5 9.6h-3.2l-5.2-9.4h-3.6v9.4h-2.9zm2.9 10.7h3.9q2 0 3.3-1 1.3-1 1.3-3.2 0-2.2-1.3-3.2-1.3-.9-3.3-.9h-3.9z"/><path d="m66.1 358.7q-3-3.3-7.1-5.7-4.2-2.4-9.2-4-5.1-1.8-8-3.2-3-1.3-4.2-2.6-1.3-1.3-1.3-2.9 0-2.2 2.3-3.2 2.3-.9 5.7-.9 2.9 0 6.1 1.1 3.2 1.1 5.7 2.5 2.6 1.4 3.6 2.2l11.9-20.1q-.9-.8-4.9-2.8-4-2-10.4-3.8-6.5-1.7-14.8-1.7c-5.5 0-10.2 1-15 3q-7 3-11.4 8.6-4.4 5.7-4.4 13.6c0 5.3 1 9.5 3.1 13q3.1 5.1 8 8.4 4.9 3.2 10.4 5.2 5.6 2 8.7 3.6 3.1 1.5 4.3 2.8 1.2 1.4 1.2 3 0 2.2-2 3.3-1.9 1.2-6 1.2-3.1 0-6.6-1-3.6-1-6.9-2.4-3.4-1.4-5.7-2.7-2.4-1.3-3.1-1.9l-12.2 20.9q1 1.1 5.6 3.5 4.5 2.4 12 4.5 7.4 2.1 16.9 2.1 6.2 0 12.3-1.5 6.1-1.4 11-4.6 4.9-3.1 7.9-8.1 2.9-5 2.9-12.2 0-5.3-1.7-9.6-1.7-4.3-4.7-7.6z"/><path d="m96.2 353.9q-7.2 0-12.2-5.1-.4-.5-.8-.9v52.8h25.5v-52.1q-.1.1-.2.2-5.1 5-12.3 5.1z"/><path d="m119.4 311.5h25.5v89.2h-25.5z" fill-rule="evenodd"/><path d="m231.4 391.4q-3.3-5.2-4.3-11.5-.9.8-2.5 1.6-1.9 1-4.6 1-2.5 0-4.5-1.2-1.9-1.2-3-3.2-1.1-1.9-1.1-4 0-2.2 1.1-4.1 1.1-1.9 3-3.2 2-1.2 4.5-1.2 2 0 3.5.6 1.5.4 2.5 1.1.8.5 1.2.9 1-6.1 4.2-11.1 2.5-4 5.9-7-.9-.6-2.2-1.1-2.7-1.3-6.6-2.2-3.9-.9-8.6-.9-10.5 0-17.9 3.6-7.3 3.6-11.2 9.9-3.8 6.4-3.8 14.7c0 5.5 1.3 10.3 3.8 14.5q3.9 6.4 11.2 10 7.4 3.7 17.9 3.7 4.9 0 8.7-1c2.5-.6 4.6-1.4 6.4-2.2q1-.6 1.9-1.1-3.2-2.9-5.5-6.6z"/><path d="m281.2 349.5q-7-3.6-16-3.6-9.1 0-16.2 3.6-7.1 3.7-11.1 10.1-4 6.3-4 14.6 0 8.3 4 14.7 4 6.3 11.1 9.8 7.1 3.5 16.2 3.5 9 0 16-3.5 6.9-3.5 10.8-9.8 3.9-6.4 3.9-14.7 0-8.3-3.9-14.6-3.9-6.4-10.8-10.1zm-10.1 28.6q-.8 1.7-2.3 2.5-1.5.9-3.6.9-2.2 0-3.7-.9-1.5-.8-2.4-2.5-.8-1.7-.8-4 0-2.3.8-3.9.9-1.7 2.4-2.6 1.5-.9 3.7-.9 2.1 0 3.6.9 1.5.9 2.3 2.6.8 1.6.8 3.9 0 2.3-.8 4z"/><path d="m356 348.2q-5.5-2.3-11.4-2.3-4.2 0-7.8 1.2-3.6 1.2-6.1 3.1-2.5 1.9-3.3 4v-6.7h-25.5v53.2h25.5v-28q0-2.8 1.1-4.8 1.1-2 3-3.1 1.9-1.1 4.2-1.1 3.4 0 5.5 2.4 2 2.4 2 6.6v28h25.6l-.1-32q.1-8.1-3.5-13.2-3.6-5-9.2-7.3z"/><path d="m414.4 311.5h25.5v89.2h-25.5z" fill-rule="evenodd"/><path d="m504.5 358.6q-3.7-6.5-10.5-9.6-6.7-3.1-16-3.1c-6.2 0-11.8 1.2-16.3 3.7q-6.8 3.6-10.4 9.9-3.5 6.3-3.5 14 0 9.9 4.3 16.3 4.3 6.4 11.6 9.4 7.4 3.1 16.4 3.1 8 0 13.1-1 5.1-.9 7.9-2 2.8-1.1 4.1-1.9l-9.2-16q-1.3.9-3.6 1.5-2.3.6-5 .8-2.7.3-5.6.3-2.6 0-4.7-.6-2.1-.6-3.5-1.7-1.3-1-1.6-2.6h36q.1-.4.1-2 0-1.5 0-2 0-10-3.6-16.5zm-32 10.1q.1-2.4.9-3.8.8-1.4 2.2-2 1.3-.6 2.8-.6 1.7 0 2.9.7 1.2.7 2 2.1.7 1.4.8 3.6z"/><path d="m108.1 326.8q-1.9-3.1-5-5c-2.1-1.2-4.3-1.8-6.9-1.8q-5.7 0-9.6 4.1c-2.2 2.2-3.5 4.8-3.9 7.7q-.2 1-.1 2-.1 5.6 4 9.6 3.9 4.1 9.6 4.1 5.7 0 9.8-4.1 4-4.1 4.1-9.6-.1-.9-.2-1.8-.3-2.8-1.8-5.2z"/><path d="m167.5 353.9q-7.2 0-12.2-5.1-.4-.5-.8-.9v52.8h25.5v-52.1q-.1.1-.2.2-5.1 5-12.3 5.1z"/><path d="m179.4 326.8q-1.9-3.1-5-5c-2.1-1.2-4.3-1.8-6.9-1.8q-5.7 0-9.7 4.1c-2.1 2.2-3.4 4.8-3.8 7.7q-.2 1-.2 2 0 5.6 4 9.6 4 4.1 9.7 4.1 5.7 0 9.8-4.1 4-4.1 4-9.6 0-.9-.1-1.8-.3-2.8-1.8-5.2z"/><path d="m392.7 354.2q-7.2 0-12.3-5.1-.4-.5-.8-.9v52.8h25.5v-52.1q-.1.1-.2.2-5.1 5-12.2 5.1z"/><path d="m404.6 327.1q-1.9-3.1-5-5c-2.1-1.2-4.4-1.8-6.9-1.8q-5.7 0-9.7 4.1c-2.2 2.2-3.5 4.8-3.8 7.7q-.2 1-.2 2 0 5.5 4 9.6 4 4 9.7 4.1 5.7-.1 9.7-4.1 4.1-4.1 4.1-9.6 0-1-.1-1.9-.4-2.7-1.8-5.1z"/></g></g></svg>